<svg xmlns="http://www.w3.org/2000/svg" xmlns:xlink="http://www.w3.org/1999/xlink" version="1.1" x="0px" y="0px" viewBox="0 0 100 100" enable-background="new 0 0 100 100" xml:space="preserve"><g><circle cx="50.709" cy="11.979" r="7.851"></circle><path d="M50.709,20.33c-4.605,0-8.351-3.746-8.351-8.351s3.746-8.351,8.351-8.351c4.604,0,8.35,3.746,8.35,8.351   S55.313,20.33,50.709,20.33z M50.709,4.628c-4.053,0-7.351,3.298-7.351,7.351s3.298,7.351,7.351,7.351s7.35-3.298,7.35-7.351   S54.763,4.628,50.709,4.628z"></path></g><g><g><path d="M63.788,44.755H37.63c-2.768,0-5.019-2.251-5.019-5.019v-6.243c0-2.768,2.251-5.019,5.019-5.019h26.158    c2.768,0,5.02,2.251,5.02,5.019v6.243C68.808,42.504,66.556,44.755,63.788,44.755z M37.63,29.475    c-2.216,0-4.019,1.803-4.019,4.019v6.243c0,2.216,1.803,4.019,4.019,4.019h26.158c2.217,0,4.02-1.803,4.02-4.019v-6.243    c0-2.216-1.803-4.019-4.02-4.019H37.63z"></path></g><g><path d="M63.788,44.755H37.63c-2.768,0-5.019-2.251-5.019-5.019v-6.243c0-2.768,2.251-5.019,5.019-5.019h26.158    c2.768,0,5.02,2.251,5.02,5.019v6.243C68.808,42.504,66.556,44.755,63.788,44.755z M37.63,29.475    c-2.216,0-4.019,1.803-4.019,4.019v6.243c0,2.216,1.803,4.019,4.019,4.019h26.158c2.217,0,4.02-1.803,4.02-4.019v-6.243    c0-2.216-1.803-4.019-4.02-4.019H37.63z"></path></g><g><path d="M63.788,44.755H37.63c-2.768,0-5.019-2.251-5.019-5.019v-6.243c0-2.768,2.251-5.019,5.019-5.019h26.158    c2.768,0,5.02,2.251,5.02,5.019v6.243C68.808,42.504,66.556,44.755,63.788,44.755z M37.63,29.475    c-2.216,0-4.019,1.803-4.019,4.019v6.243c0,2.216,1.803,4.019,4.019,4.019h26.158c2.217,0,4.02-1.803,4.02-4.019v-6.243    c0-2.216-1.803-4.019-4.02-4.019H37.63z"></path></g></g><g><circle cx="42.094" cy="36.615" r="2.522"></circle></g><g><circle cx="59.325" cy="36.615" r="2.522"></circle></g><g><path fill="#000000" d="M45.649,52.28c0,0.398,0.425,0.721,0.949,0.721h8.223c0.524,0,0.948-0.322,0.948-0.721v-2.16   c0-0.399-0.424-0.721-0.948-0.721h-8.223c-0.524,0-0.949,0.322-0.949,0.721V52.28z"></path></g><g><path d="M76.327,31.953c0-9.848-8.011-17.859-17.856-17.859H42.95c-0.615,0-1.224,0.031-1.823,0.092   c-8.995,0.916-16.036,8.531-16.033,17.716c-0.092,0.914-2.235,22.455,0.022,29.423c3.295,10.17,24.327,33.873,25.221,34.877   l0.374,0.42l0.373-0.42c0.895-1.004,21.926-24.707,25.22-34.877C78.561,54.357,76.417,32.816,76.327,31.953z M68.308,39.736   c0,2.496-2.023,4.519-4.52,4.519H37.63c-2.496,0-4.519-2.024-4.519-4.519v-6.243c0-2.496,2.023-4.519,4.519-4.519h26.158   c2.496,0,4.52,2.023,4.52,4.519V39.736z"></path></g></svg>